{"title":"Goemon (2009) 720p Blu-Ray x264 [Dual-Audio][Japanese 5.1 + Hind","uid":11160839,"size":1205334357,"categoryP":"video","categoryS":"hd___movies","magnet":"?xt=urn:btih:a633ea4d55d40b96704a1cac94d022961318af04&amp;dn=Goemon+%282009%29+720p+Blu-Ray+x264+%5BDual-Audio%5D%5BJapanese+5.1+%2B+Hind&amp;tr=udp%3A%2F%2Ftracker.openbittorrent.com%3A80&amp;tr=udp%3A%2F%2Fopen.demonii.com%3A1337&amp;tr=udp%3A%2F%2Ftracker.coppersurfer.tk%3A6969&amp;tr=udp%3A%2F%2Fexodus.desync.com%3A6969","seeders":5,"leechers":2,"uploader":"inovai","files":3,"time":1412537469,"description":"Goemon (2009) 720p Blu-Ray x264 [Dual-Audio] [Japanese 5.1 + Hindi 2.0] - Mafiaking - TeamTNT \n\nCover:\n &lt;a href=&quot;\nhttp://forum.primetimeshow.in/viewtopic.php?f=7&amp;t=752&quot; rel=&quot;nofollow&quot; target=&quot;_NEW&quot;&gt;\nhttp://forum.primetimeshow.in/viewtopic.php?f=7&amp;t=752&lt;/a&gt;\n\n\nRatings: 6.8/10\n\nGENRE: Action | Drama\n\n\nScreenshots:\n &lt;a href=&quot;\nhttp://m.primetimeshow.in/share-2A9E_54317FC4.html&quot; rel=&quot;nofollow&quot; target=&quot;_NEW&quot;&gt;\nhttp://m.primetimeshow.in/share-2A9E_54317FC4.html&lt;/a&gt;\n &lt;a href=&quot;\nhttp://m.primetimeshow.in/share-69D3_54317FC4.html&quot; rel=&quot;nofollow&quot; target=&quot;_NEW&quot;&gt;\nhttp://m.primetimeshow.in/share-69D3_54317FC4.html&lt;/a&gt;\n &lt;a href=&quot;\nhttp://m.primetimeshow.in/share-3D13_54317FC4.html&quot; rel=&quot;nofollow&quot; target=&quot;_NEW&quot;&gt;\nhttp://m.primetimeshow.in/share-3D13_54317FC4.html&lt;/a&gt;\n &lt;a href=&quot;\nhttp://m.primetimeshow.in/share-AC8E_54317FC4.html&quot; rel=&quot;nofollow&quot; target=&quot;_NEW&quot;&gt;\nhttp://m.primetimeshow.in/share-AC8E_54317FC4.html&lt;/a&gt;\n &lt;a href=&quot;\nhttp://m.primetimeshow.in/share-03FF_54317FC4.html&quot; rel=&quot;nofollow&quot; target=&quot;_NEW&quot;&gt;\nhttp://m.primetimeshow.in/share-03FF_54317FC4.html&lt;/a&gt;\n\nGeneral\nUnique ID : 178852805062890628629581646830558689842 (0x868DCC1B406D1E9E912CD66B8362BA32)\nComplete name : Goemon (2009) 720p Blu-Ray x264 [Dual-Audio][Japanese 5.1 + Hindi 2.0] - Mafiaking - TeamTNT.mkv\nFormat : Matroska\nFormat version : Version 4 / Version 2\nFile size : 1.11 GiB\nDuration : 2h 7mn\nOverall bit rate : 1 245 Kbps\nMovie name : Goemon (2009) 720p Blu-Ray x264 [Dual-Audio][Japanese 5.1 + Hindi 2.0] - Mafiaking - TeamTNT\nEncoded date : UTC 2014-10-05 13:26:18\nWriting application : mkvmerge v7.0.0 ('Where We Going') 64bit built on Jun 9 2014 15:16:27\nWriting library : libebml v1.3.0 + libmatroska v1.4.1\n\nVideo\nID : 1\nFormat : AVC\nFormat/Info : Advanced Video Codec\nFormat profile : &lt;a class=&quot;__cf_email__&quot; href=&quot;/cdn-cgi/l/email-protection&quot; data-cfemail=&quot;ade5c4cac5ede199839c&quot;&gt;[email&amp;#160;protected]&lt;/a&gt;&lt;script cf-hash='f9e31' type=&quot;text/javascript&quot;&gt;\n/* &lt;![CDATA[ */!function(){try{var t=&quot;currentScript&quot;in document?document.currentScript:function(){for(var t=document.getElementsByTagName(&quot;script&quot;),e=t.length;e--;)if(t[e].getAttribute(&quot;cf-hash&quot;))return t[e]}();if(t&amp;&amp;t.previousSibling){var e,r,n,i,c=t.previousSibling,a=c.getAttribute(&quot;data-cfemail&quot;);if(a){for(e=&quot;&quot;,r=parseInt(a.substr(0,2),16),n=2;a.length-n;n+=2)i=parseInt(a.substr(n,2),16)^r,e+=String.fromCharCode(i);e=document.createTextNode(e),c.parentNode.replaceChild(e,c)}}}catch(u){}}();/* ]]&gt; */&lt;/script&gt;\nFormat settings, CABAC : Yes\nFormat settings, ReFrames : 4 frames\nCodec ID : V_MPEG4/ISO/AVC\nDuration : 2h 7mn\nBit rate : 900 Kbps\nWidth : 1 280 pixels\nHeight : 544 pixels\nDisplay aspect ratio : 2.35:1\nFrame rate mode : Constant\nFrame rate : 23.976 fps\nColor space : YUV\nChroma subsampling : 4:2:0\nBit depth : 8 bits\nScan type : Progressive\nBits/(Pixel*Frame) : 0.054\nStream size : 794 MiB (70%)\nTitle : Mafiaking\nLanguage : Japanese\nDefault : Yes\nForced : No\n\nAudio #1\nID : 2\nFormat : AC-3\nFormat/Info : Audio Coding 3\nMode extension : CM (complete main)\nFormat settings, Endianness : Big\nCodec ID : A_AC3\nDuration : 2h 7mn\nBit rate mode : Constant\nBit rate : 128 Kbps\nChannel(s) : 2 channels\nChannel positions : Front: L R\nSampling rate : 48.0 KHz\nBit depth : 16 bits\nCompression mode : Lossy\nStream size : 117 MiB (10%)\nTitle : Mafiaking\nLanguage : Hindi\nDefault : Yes\nForced : No\n\nAudio #2\nID : 3\nFormat : AC-3\nFormat/Info : Audio Coding 3\nMode extension : CM (complete main)\nFormat settings, Endianness : Big\nCodec ID : A_AC3\nDuration : 2h 7mn\nBit rate mode : Constant\nBit rate : 224 Kbps\nChannel(s) : 6 channels\nChannel positions : Front: L C R, Side: L R, LFE\nSampling rate : 48.0 KHz\nBit depth : 16 bits\nCompression mode : Lossy\nStream size : 205 MiB (18%)\nTitle : Mafiaking\nLanguage : Japanese\nDefault : No\nForced : No\n\nSAMPLE WITH IN TORRENT\n\nThanks to Mafiaking - TeamTNT !!\n\nSeed n Enjoy!!","torrent":{"xt":"urn:btih:a633ea4d55d40b96704a1cac94d022961318af04","amp;dn":"Goemon+%282009%29+720p+Blu-Ray+x264+%5BDual-Audio%5D%5BJapanese+5.1+%2B+Hind","amp;tr":["udp%3A%2F%2Ftracker.openbittorrent.com%3A80","udp%3A%2F%2Fopen.demonii.com%3A1337","udp%3A%2F%2Ftracker.coppersurfer.tk%3A6969","udp%3A%2F%2Fexodus.desync.com%3A6969"],"infoHash":"a633ea4d55d40b96704a1cac94d022961318af04","infoHashBuffer":{"type":"Buffer","data":[166,51,234,77,85,212,11,150,112,74,28,172,148,208,34,150,19,24,175,4]},"announce":[],"urlList":[]}}